<?xml version="1.0" encoding="UTF-8"?>
<svg width="469.34" height="433.23" version="1.1" viewBox="0 0 532.44 474.58" xmlns="http://www.w3.org/2000/svg">
 <path id="Shape" d="m517.4 6.4582c-10.027-10.025-22.079-15.038-36.158-15.038h-430.05c-14.078 0-26.131 5.0127-36.155 15.038-10.025 10.025-15.039 22.078-15.039 36.156v389.09c0 14.08 5.0139 26.132 15.039 36.158 10.024 10.025 22.077 15.038 36.155 15.038h430.05c14.08 0 26.132-5.0116 36.158-15.038 10.025-10.027 15.038-22.079 15.038-36.158v-389.09c0-14.078-5.0116-26.131-15.038-36.156zm-24.397 437.89h-453.56v-408.77h453.56z" stroke-width="1.1199"/>
</svg>
