<?xml version="1.0" encoding="UTF-8"?>
<svg width="500" height="500" version="1.1" viewBox="0 0 500 500" xmlns="http://www.w3.org/2000/svg">
 <path id="Shape" d="m480.39 21.24c-9.2077-9.9335-20.275-14.901-33.204-14.901h-394.91c-12.928 0-23.996 4.9669-33.201 14.901-9.2059 9.9335-13.81 21.876-13.81 35.826v385.54c0 13.951 4.6042 25.893 13.81 35.828 9.205 9.9335 20.273 14.901 33.201 14.901h394.91c12.93 0 23.997-4.9658 33.204-14.901 9.2059-9.9355 13.809-21.877 13.809-35.828v-385.54c0-13.95-4.6021-25.892-13.809-35.826zm-28.717 414.95-402.61 1.8939v-377.89l402.61-0.63131z" stroke-width="1.0683"/>
</svg>
