<?xml version="1.0" encoding="UTF-8"?>
<svg width="542.91" height="456.41" version="1.1" viewBox="0 0 498.38 418.97" xmlns="http://www.w3.org/2000/svg">
 <path d="m74.582 107.02c-10.829-8.96-27.059-7.424-36.045 3.379l-32.691 39.399c-8.96 10.829-7.449 27.085 3.354 36.019l201.93 167.48-97.459-213.86-39.091-32.41zm98.151-84.864-46.592 21.222c-12.775 5.837-18.483 21.12-12.672 33.894l108.8 238.72 5.453-234.98-21.043-46.183c-5.888-12.8-21.145-18.509-33.946-12.672zm184.27 5.222c0.333-14.08-10.931-25.856-24.986-26.189l-51.2-1.178c-14.055-0.333-25.831 10.931-26.163 24.986l-6.119 262.22 107.26-209.08 1.203-50.765zm127.49 24.32-45.543-23.373c-12.519-6.4-28.058-1.408-34.483 11.111l-163.61 318.87c-6.425 12.519-1.434 28.058 11.11 34.483l45.543 23.373c12.519 6.425 28.032 1.433 34.457-11.085l163.61-318.87c6.425-12.57 1.433-28.083-11.085-34.509zm-163.64 318.87c-6.451 12.595-21.888 17.562-34.457 11.111-12.595-6.451-17.536-21.863-11.085-34.457s21.863-17.536 34.457-11.085c12.595 6.425 17.536 21.863 11.085 34.432z" fill="#444"/>
</svg>
