<?xml version="1.0" encoding="UTF-8"?>
<svg width="500" height="500" version="1.1" viewBox="0 0 500 500" xmlns="http://www.w3.org/2000/svg">
 <path d="m76.539 152.5c-10.758-9.1517-26.882-7.5828-35.809 3.4513l-32.477 40.242c-8.9014 11.061-7.4003 27.665 3.3321 36.79l200.61 171.06-96.822-218.44-38.835-33.103zm97.509-86.68-46.287 21.676c-12.691 5.9619-18.362 21.572-12.589 34.619l108.09 243.83 5.4173-240.01-20.905-47.171c-5.8495-13.074-21.007-18.905-33.724-12.943zm183.06 5.3337c0.33082-14.381-10.859-26.409-24.823-26.749l-50.865-1.2032c-13.963-0.34012-25.662 11.165-25.992 25.521l-6.079 267.83 106.56-213.55 1.1951-51.851zm126.66 24.84-45.245-23.873c-12.437-6.5369-27.874-1.4381-34.257 11.349l-162.54 325.69c-6.383 12.787-1.4246 28.658 11.037 35.221l45.245 23.873c12.437 6.5625 27.849 1.4637 34.232-11.322l162.54-325.69c6.383-12.839 1.4236-28.684-11.012-35.247zm-162.57 325.69c-6.4088 12.864-21.745 17.938-34.232 11.349-12.513-6.589-17.421-22.331-11.012-35.194 6.4088-12.863 21.72-17.911 34.232-11.322 12.513 6.5625 17.421 22.331 11.012 35.169z" fill="#444" stroke-width="1.0073"/>
</svg>
