<?xml version="1.0" encoding="UTF-8"?>
<svg width="500" height="500" version="1.1" viewBox="0 0 500 500" xmlns="http://www.w3.org/2000/svg">
 <path id="Path" d="m483.78 60.72c4.4965 4.4965 6.7444 9.8937 6.7444 16.188 0 6.2961-2.2478 11.692-6.7444 16.188l-176.36 163.64 169.61 160.26c4.4965 4.4982 6.7444 9.8945 6.7444 16.19 0 6.2953-2.2478 11.692-6.7444 16.189l-32.379 32.378c-4.4965 4.4974-9.8929 6.746-16.189 6.746-6.2962 0-11.692-2.2487-16.189-6.746l-165.44-159.43-164.84 159.43c-4.4965 4.4965-9.892 6.746-16.189 6.746-6.2945 0-11.691-2.2495-16.188-6.746l-32.378-32.377c-4.4965-4.4982-6.7469-9.8945-6.7469-16.19 0-6.2961 2.2495-11.692 6.7469-16.19l169.01-159.43-169.01-162.81c-4.4974-4.4965-6.7452-9.8929-6.7452-16.188s2.2487-11.692 6.7452-16.189l32.378-32.378c4.4974-4.4965 9.8937-6.746 16.19-6.746 6.2945 0 11.691 2.2478 16.188 6.7452l164.84 166.98 172.18-168.65c4.4965-4.4965 9.8929-6.7444 16.189-6.7444 6.2962 0 11.692 2.2487 16.189 6.746z" stroke-width=".8347"/>
</svg>
