<?xml version="1.0" encoding="UTF-8"?>
<svg width="500" height="500" version="1.1" viewBox="0 0 500 500" xmlns="http://www.w3.org/2000/svg">
 <g>
  <polygon id="Path" transform="matrix(1.3709 0 0 1.3709 12.515 8.9394)" points="272 133 272 166 83 166 83 133"/>
  <polygon transform="matrix(1.3709 0 0 1.3709 12.515 8.9394)" points="240 188 240 218 116 218 116 188"/>
  <polygon transform="matrix(1.3709 0 0 1.3709 12.515 8.9394)" points="206 242 206 264 150 264 150 242"/>
  <path id="Shape" d="m478.72 157.12c-12.192-28.873-29.702-54.834-52.003-77.095-22.302-22.302-48.202-39.751-77.095-52.003-29.944-12.637-61.729-19.087-94.463-19.087-32.735 0-64.519 6.4499-94.463 19.087-28.873 12.192-54.834 29.702-77.095 52.003-22.302 22.302-39.751 48.202-52.003 77.095-12.637 29.944-19.087 61.729-19.087 94.463 0 32.735 6.4499 64.519 19.087 94.463 12.192 28.873 29.702 54.834 52.003 77.095 22.302 22.302 48.202 39.751 77.095 52.003 29.944 12.637 61.729 19.087 94.463 19.087 32.735 0 64.519-6.4499 94.463-19.087 28.873-12.192 54.834-29.702 77.095-52.003 22.302-22.302 39.751-48.202 52.003-77.095 12.637-29.944 19.087-61.729 19.087-94.463 0-32.735-6.4499-64.519-19.087-94.463zm-223.54 296.65c-111.45 0-202.19-90.743-202.19-202.19 0-111.45 90.743-202.19 202.19-202.19 111.47 0 202.19 90.743 202.19 202.19 0 111.45-90.743 202.19-202.19 202.19z" stroke-width="1.3709"/>
 </g>
</svg>
