<?xml version="1.0" encoding="UTF-8"?>
<svg width="500" height="500" version="1.1" viewBox="0 0 500 500" xmlns="http://www.w3.org/2000/svg">
 <g transform="matrix(.95721 0 0 .95721 -8.8992 -6.9482)" fill="#444">
  <path d="m239.41 168.88c0-12.933 10.575-23.508 23.508-23.508h15.672c12.933 0 23.508 10.575 23.508 23.508v15.672c0 12.933-10.575 23.508-23.508 23.508h-15.672c-12.933 0-23.508-10.575-23.508-23.508z"/>
  <path d="m333.44 396.12h-125.38v-31.344h31.344v-94.031h-31.344v-31.344h94.031v125.38h31.344v31.344z"/>
  <path d="m270.75 20c-138.49 0-250.75 112.26-250.75 250.75s112.26 250.75 250.75 250.75 250.75-112.26 250.75-250.75-112.26-250.75-250.75-250.75zm0 454.48c-112.53 0-203.73-91.215-203.73-203.73 0-112.53 91.207-203.73 203.73-203.73 112.52 0 203.73 91.208 203.73 203.73 0 112.52-91.213 203.73-203.73 203.73z"/>
 </g>
</svg>
