<?xml version="1.0" encoding="UTF-8"?>
<svg width="500" height="500" version="1.1" viewBox="0 0 500 500" xmlns="http://www.w3.org/2000/svg">
 <path d="m449.29 65.459h-141.24c0-34.097-28.102-61.74-62.771-61.74-34.669 0-62.771 27.642-62.771 61.74h-141.24c-8.6663 0-15.692 6.9109-15.692 15.436v401.3c0 8.5249 7.0264 15.436 15.692 15.436h408c8.6672 0 15.692-6.91 15.692-15.436v-401.3c0-8.524-7.0254-15.436-15.692-15.436zm-204-30.87c17.333 0 31.385 13.822 31.385 30.87 0 17.049-14.052 30.87-31.385 30.87-17.333 0-31.385-13.822-31.385-30.87 0-17.049 14.052-30.87 31.385-30.87zm188.31 432.18h-376.62v-370.44h62.771v46.306c0 8.524 7.0263 15.436 15.692 15.436h219.7c8.6672 0 15.692-6.9109 15.692-15.436v-46.306h62.771z" stroke-width=".9727"/>
 <path d="m218.84 421.56-106.68-123.31 30.408-30.409 76.268 59.636 142.79-126.16 30.411 30.408z" stroke-width="1.0395"/>
</svg>
