<?xml version="1.0" encoding="UTF-8"?>
<svg width="500" height="500" version="1.1" viewBox="0 0 500 500" xmlns="http://www.w3.org/2000/svg">
 <path d="m472.85 65.459h-154.15c0-34.097-30.672-61.74-68.511-61.74s-68.511 27.642-68.511 61.74h-154.15c-9.4587 0-17.127 6.9109-17.127 15.436v401.3c0 8.5249 7.6689 15.436 17.127 15.436h445.31c9.4597 0 17.127-6.91 17.127-15.436v-401.3c0-8.524-7.6678-15.436-17.127-15.436zm-222.65-30.87c18.918 0 34.255 13.822 34.255 30.87 0 17.049-15.337 30.87-34.255 30.87-18.918 0-34.255-13.822-34.255-30.87 0-17.049 15.337-30.87 34.255-30.87zm205.53 432.18h-411.06v-370.44h68.511v46.306c0 8.524 7.6688 15.436 17.127 15.436h239.79c9.4597 0 17.127-6.9109 17.127-15.436v-46.306h68.511z" stroke-width="1.0162"/>
 <path d="m218.84 421.56-106.68-123.31 30.408-30.409 76.268 59.636 142.79-126.16 30.411 30.408z" stroke-width="1.0395"/>
</svg>
