<?xml version="1.0" encoding="UTF-8"?>
<svg width="461.39" height="464.23" version="1.1" viewBox="70 70 459.59 426.15" xmlns="http://www.w3.org/2000/svg">
 <path d="m513.19 107.8h-147.73c0-31.923-29.394-57.802-65.656-57.802s-65.656 25.879-65.656 57.802h-147.73c-9.0646 0-16.414 6.4702-16.414 14.451v375.71c0 7.9812 7.3494 14.451 16.414 14.451h426.76c9.0656 0 16.414-6.4693 16.414-14.451v-375.71c0-7.9803-7.3483-14.451-16.414-14.451zm-213.38-28.901c18.13 0 32.828 12.94 32.828 28.901 0 15.962-14.698 28.901-32.828 28.901s-32.828-12.94-32.828-28.901c0-15.962 14.698-28.901 32.828-28.901zm196.97 404.61h-393.94v-346.81h65.656v43.352c0 7.9803 7.3493 14.451 16.414 14.451h229.8c9.0656 0 16.414-6.4702 16.414-14.451v-43.352h65.656z" stroke-width=".96256"/>
 <path d="m195.04 405.2-102.63-118.63 29.254-29.255 73.373 57.372 137.37-121.37 29.257 29.254z"/>
</svg>
