<?xml version="1.0" encoding="UTF-8"?>
<svg width="391.86" height="391.86" version="1.1" viewBox="-30 -30 442.28 442.28" xmlns="http://www.w3.org/2000/svg">
 <path id="Path" d="m412.28 201.57c0 7.6187-2.6667 18.095-8 23.428s-11.809 8-19.428 8h-151.86v151.86c0 7.6187-2.6667 14.095-8 19.428s-11.809 8-19.428 8h-28.857c-7.6193 0-14.096-2.6667-19.429-8s-8-11.809-8-19.428v-151.86h-151.86c-7.6187 0-14.095-2.6667-19.428-8s-8-11.809-8-19.428v-28.857c0-7.6193 2.6667-14.096 8-19.429s11.809-8 19.428-8h151.86v-151.86c0-7.6187 2.6667-14.095 8-19.428s11.809-8 19.428-8h28.857c7.6193 0 14.096 2.6667 19.429 8s8 11.809 8 19.428v151.86h151.86c7.6187 0 14.095 2.6667 19.428 8s8 11.809 8 19.428z"/>
</svg>
