<?xml version="1.0" encoding="UTF-8"?>
<svg width="500" height="500" version="1.1" viewBox="0 0 500 500" xmlns="http://www.w3.org/2000/svg">
 <path id="Path" d="m494.41 264.04c0 8.4369-2.9531 20.038-8.8591 25.944s-13.077 8.8591-21.514 8.8591h-168.17v168.17c0 8.4369-2.9531 15.609-8.8591 21.514s-13.077 8.8591-21.514 8.8591h-31.956c-8.4376 0-15.61-2.9531-21.516-8.8591s-8.8591-13.077-8.8591-21.514v-168.17h-168.17c-8.4369 0-15.609-2.9531-21.514-8.8591-5.9057-5.906-8.8591-13.077-8.8591-21.514v-31.956c0-8.4376 2.9531-15.61 8.8591-21.516 5.9061-5.9057 13.077-8.8591 21.514-8.8591h168.17v-168.17c0-8.4369 2.9531-15.609 8.8591-21.514s13.077-8.8591 21.514-8.8591h31.956c8.4376 0 15.61 2.9531 21.516 8.8591s8.8591 13.077 8.8591 21.514v168.17h168.17c8.4369 0 15.609 2.9531 21.514 8.8591s8.8591 13.077 8.8591 21.514z" stroke-width="1.1074"/>
</svg>
