<?xml version="1.0" encoding="UTF-8"?>
<svg width="500" height="500" version="1.1" viewBox="0 0 500 500" xmlns="http://www.w3.org/2000/svg">
 <path d="m283.35 35.998c-105.78 0-193.26 78.22-207.83 179.97h-77.129l104.98 119.98 104.98-119.98h-87.27c5.9634-32.646 21.637-62.691 45.604-86.658 31.159-31.159 72.588-48.319 116.65-48.319 44.066 0 85.494 17.16 116.65 48.319 31.158 31.159 48.319 72.588 48.319 116.65 0 44.066-17.16 85.494-48.319 116.65-31.159 31.158-72.587 48.319-116.65 48.319v44.992c115.96 0 209.96-94.006 209.96-209.96 0-115.96-94.006-209.96-209.96-209.96z" stroke-width=".93734"/>
</svg>
