<?xml version="1.0" encoding="UTF-8"?>
<svg width="500" height="500" version="1.1" viewBox="0 0 500 500"><path d="m427.87 493.69a33.778 33.78 0 0 1-23.882-57.661l33.778-33.78a33.799 33.8 0 0 1 47.83 47.763l-33.778 33.78a33.778 33.78 0 0 1-23.882 9.8976zm-190.44 0a33.778 33.78 0 0 1-23.882-57.661l224.22-224.23a33.799 33.8 0 0 1 47.83 47.763l-224.22 224.23a33.778 33.78 0 0 1-23.882 9.8976zm-197.26 0a33.778 33.78 0 0 1-23.882-57.661l421.46-421.47a33.786 33.786 0 1 1 47.797 47.763l-421.49 421.47a33.778 33.78 0 0 1-23.882 9.8976z" fill="#494c4e" stroke-width="33.78"/></svg>
