<?xml version="1.0" encoding="UTF-8"?>
<svg width="500" height="500" version="1.1" viewBox="0 0 500 500" xmlns="http://www.w3.org/2000/svg">
 <path d="m479.55 421.23-115.21-97.99c-11.91-10.719-24.648-15.64-34.937-15.165 27.197-31.857 43.625-73.187 43.625-118.36 0-100.74-81.663-182.4-182.4-182.4-100.74 0-182.4 81.663-182.4 182.4 0 100.74 81.663 182.4 182.4 182.4 45.172 0 86.502-16.428 118.36-43.626-0.47501 10.289 4.446 23.027 15.165 34.937l97.99 115.21c16.778 18.642 44.186 20.213 60.905 3.4941s15.149-44.127-3.4932-60.905zm-288.93-109.91c-67.158 0-121.6-54.443-121.6-121.6 0-67.158 54.443-121.6 121.6-121.6 67.158 0 121.6 54.443 121.6 121.6 0 67.158-54.442 121.6-121.6 121.6z" stroke-width=".95"/>
</svg>
