<?xml version="1.0" encoding="UTF-8"?>
<!-- Generated by IcoMoon.io -->
<svg width="500" height="500" version="1.1" viewBox="0 0 500 500" xmlns="http://www.w3.org/2000/svg">
 <path d="m220.51 65.2v-7.6143c0-12.564-10.279-22.843-22.843-22.843h-76.143c-12.564 0-22.843 10.279-22.843 22.843v7.6143h-91.372v60.914h91.372v7.6143c0 12.564 10.279 22.843 22.843 22.843h76.143c12.564 0 22.843-10.279 22.843-22.843v-7.6143h274.12v-60.914zm-91.372 60.914v-60.914h60.914v60.914zm274.11 83.757c0-12.564-10.279-22.843-22.843-22.843h-76.143c-12.564 0-22.843 10.279-22.843 22.843v7.6143h-274.11v60.914h274.11v7.6143c0 12.564 10.279 22.843 22.843 22.843h76.143c12.564 0 22.843-10.279 22.843-22.843v-7.6143h91.372v-60.914h-91.372zm-91.372 68.529v-60.914h60.914v60.914zm-91.372 83.757c0-12.564-10.279-22.843-22.843-22.843h-76.143c-12.564 0-22.843 10.279-22.843 22.843v7.6143h-91.372v60.914h91.372v7.6143c0 12.564 10.279 22.843 22.843 22.843h76.143c12.564 0 22.843-10.279 22.843-22.843v-7.6143h274.12v-60.914h-274.12zm-91.372 68.529v-60.914h60.914v60.914z" stroke-width=".95179"/>
</svg>
